<svg width="262" height="66" viewBox="0 0 262 66" fill="none" xmlns="http://www.w3.org/2000/svg">
<path d="M75 50.5H95" stroke="#505461" stroke-width="0.8"/>
<path d="M236 50.5H256" stroke="#505461" stroke-width="0.8"/>
<path d="M51.5693 10.724C46.5388 6.52596 40.0644 4 33 4C16.9837 4 4 16.9837 4 33C4 49.0163 16.9837 62 33 62C49.0163 62 62 49.0163 62 33C62 25.8801 59.4342 19.3595 55.1768 14.3124L53.4193 16.6291C57.0178 21.1117 59.1707 26.8044 59.1707 33C59.1707 47.4537 47.4537 59.1707 33 59.1707C18.5463 59.1707 6.82927 47.4537 6.82927 33C6.82927 18.5463 18.5463 6.82927 33 6.82927C39.1811 6.82927 44.8618 8.97215 49.3396 12.5555L51.5693 10.724Z" fill="#505461"/>
<path d="M35.122 33C35.122 34.1719 34.1719 35.122 33 35.122C31.8281 35.122 30.878 34.1719 30.878 33C30.878 31.8281 31.8281 30.878 33 30.878C34.1719 30.878 35.122 31.8281 35.122 33Z" fill="#9D705B"/>
<path d="M34.0109 28.8772L59.5244 6.12195L37.1191 31.9743C36.7406 30.4495 35.5378 29.2503 34.0109 28.8772Z" fill="#9D705B"/>
<path d="M28.7703 32.6503C28.8886 31.2005 29.7354 29.957 30.9441 29.2864L17.439 20.9756L28.7703 32.6503Z" fill="#9D705B"/>
<path d="M75.78 35.726V37H79.966V35.726H78.64V18.774H82.15V35.726H80.824V37H85.01V35.726H83.658V18.774H85.01V17.5H75.78V18.774H77.132V35.726H75.78Z" fill="#9D705B"/>
<path d="M99.649 24.442H101.157V17.5H93.591V18.774H94.917V35.726H93.591V37H101.157V30.032H99.649V35.726H96.425V27.9H99.207V26.652H96.425V18.774H99.649V24.442Z" fill="#9D705B"/>
<path d="M110.006 35.726V37H114.998V35.726H112.866V27.432H115.206C116.766 27.432 117.91 26.392 117.91 23.74V21.192C117.91 19.06 117.156 17.5 115.206 17.5H110.032V18.774H111.358V35.726H110.006ZM116.402 24C116.402 25.248 115.986 26.158 114.92 26.158H112.866V18.774H114.868C115.752 18.774 116.402 19.372 116.402 20.932V24Z" fill="#9D705B"/>
<path d="M132.421 17.5L132.265 18.566H132.213C131.927 17.786 131.225 17.24 129.899 17.24C128.001 17.24 126.623 18.202 126.623 20.672V33.828C126.623 35.83 127.611 37.26 130.107 37.26C132.161 37.26 133.669 36.298 133.669 33.828V30.032H132.161V33.984C132.161 35.154 131.589 36.012 130.107 36.012C128.963 36.012 128.131 35.44 128.131 33.984V20.984C128.131 19.554 128.703 18.514 130.159 18.514C131.329 18.514 132.161 19.216 132.161 20.984V24.442H133.669V17.5H132.421Z" fill="#9D705B"/>
<path d="M142.2 35.726V37H146.386V35.726H145.06V18.774H148.57V35.726H147.244V37H151.43V35.726H150.078V18.774H151.43V17.5H142.2V18.774H143.552V35.726H142.2Z" fill="#9D705B"/>
<path d="M166.069 24.442H167.577V17.5H160.011V18.774H161.337V35.726H160.011V37H167.577V30.032H166.069V35.726H162.845V27.9H165.627V26.652H162.845V18.774H166.069V24.442Z" fill="#9D705B"/>
<path d="M179.285 35.726V18.774H180.585V17.5H176.425V18.774H177.777V35.726H176.425V37H180.585V35.726H179.285ZM182.977 18.774L179.311 27.51L183.341 35.726H182.145V37H186.461V35.726H185.005L180.819 27.38L184.589 18.774H186.045V17.5H181.703V18.774H182.977Z" fill="#9D705B"/>
<path d="M202.183 35.726H200.337V18.774H203.275V24.416H204.783V17.5H194.383V24.416H195.891V18.774H198.829V35.726H196.983V37H202.183V35.726Z" fill="#9D705B"/>
<path d="M213.244 35.726V37H215.922L220.29 21.478L220.03 26.808V35.726H218.704V37H222.89V35.726H221.538V18.774H222.89V17.5H220.082L215.714 33.074L215.974 28.082V18.774H217.3V17.5H213.114V18.774H214.466V35.726H213.244Z" fill="#9D705B"/>
<path d="M239.362 21.192C239.362 19.06 238.556 17.5 236.528 17.5H231.458V18.774H232.81V35.726H231.458V37H236.528C238.27 37 239.518 36.012 239.518 33.464V30.136C239.518 28.082 238.842 26.574 237.1 26.496C238.4 26.444 239.362 25.664 239.362 23.766V21.192ZM237.854 23.818C237.854 25.014 237.36 25.898 236.086 25.898H234.318V18.774H236.424C237.256 18.774 237.854 19.346 237.854 20.906V23.818ZM234.318 35.726V27.094H235.93C237.126 27.094 238.01 27.978 238.01 30.292V33.724C238.01 34.894 237.438 35.726 235.93 35.726H234.318Z" fill="#9D705B"/>
<path d="M247.46 35.726V37H251.646V35.726H250.32L251.126 29.616H253.57L254.376 35.726H253.05V37H257.236V35.726H255.884L253.414 17.5H251.282L248.812 35.726H247.46ZM251.204 28.498L251.828 23.74L252.348 18.592L252.868 23.74L253.492 28.498H251.204Z" fill="#9D705B"/>
<path d="M107.971 50.1279L107.692 49.9058C108.581 49.0806 109.251 48.668 109.704 48.668C109.937 48.668 110.053 48.8203 110.053 49.125C110.053 49.3451 109.979 49.7471 109.831 50.3311L109.603 51.2769C109.577 51.3742 109.564 51.4461 109.564 51.4927C109.564 51.6535 109.674 51.7339 109.895 51.7339C110.11 51.7339 110.4 51.6006 110.764 51.334C111.132 51.0632 111.39 50.7754 111.539 50.4707C111.691 50.1618 111.852 49.6159 112.021 48.833H112.922L112.326 51.0483C111.974 52.3348 111.799 53.0669 111.799 53.2446C111.799 53.4097 111.86 53.4922 111.983 53.4922C112.135 53.4922 112.484 53.215 113.03 52.6606L113.24 52.8955C112.393 53.7799 111.767 54.2222 111.361 54.2222C111.242 54.2222 111.13 54.1693 111.024 54.0635C110.923 53.9577 110.872 53.8117 110.872 53.6255C110.872 53.4054 110.917 53.1219 111.005 52.7749L111.354 51.3149C110.415 52.0978 109.689 52.4893 109.177 52.4893C108.779 52.4893 108.581 52.3052 108.581 51.937C108.581 51.7635 108.697 51.2388 108.93 50.3628C109.031 49.9692 109.082 49.7217 109.082 49.6201C109.082 49.5016 109.035 49.4424 108.942 49.4424C108.765 49.4424 108.441 49.6709 107.971 50.1279Z" fill="#505461"/>
<path d="M121.945 48.5537L122.364 48.4648L121.888 50.0708C121.697 50.7098 121.518 51.4461 121.348 52.2798C121.255 52.7326 121.209 53.0246 121.209 53.1558C121.209 53.2869 121.261 53.3525 121.367 53.3525C121.435 53.3525 121.543 53.3081 121.691 53.2192C121.953 53.0627 122.205 52.868 122.446 52.6353L122.65 52.8828C122.167 53.3229 121.858 53.5895 121.723 53.6826C121.452 53.8688 121.194 54.0063 120.948 54.0952C120.788 54.1545 120.631 54.1841 120.479 54.1841C120.369 54.1841 120.286 54.1587 120.231 54.1079C120.176 54.0571 120.149 53.9831 120.149 53.8857C120.149 53.8223 120.165 53.7355 120.199 53.6255L120.453 52.7622C120.089 53.1981 119.656 53.5726 119.152 53.8857C118.843 54.0804 118.56 54.1777 118.301 54.1777C118.056 54.1777 117.868 54.091 117.736 53.9175C117.559 53.6847 117.47 53.38 117.47 53.0034C117.47 52.5549 117.588 52.0555 117.825 51.5054C118.067 50.9552 118.388 50.4559 118.79 50.0073C119.192 49.5588 119.615 49.2287 120.06 49.0171C120.402 48.8563 120.843 48.7759 121.38 48.7759C121.515 48.7759 121.653 48.7843 121.793 48.8013L121.945 48.5537ZM121.158 49.5249C120.929 49.4784 120.737 49.4551 120.58 49.4551C120.199 49.4551 119.867 49.5609 119.584 49.7725C119.3 49.9798 119.036 50.3564 118.79 50.9023C118.549 51.444 118.428 51.9857 118.428 52.5273C118.428 52.8151 118.477 53.0225 118.574 53.1494C118.672 53.2764 118.799 53.3398 118.955 53.3398C119.247 53.3398 119.56 53.1833 119.895 52.8701C120.229 52.5527 120.474 52.0978 120.631 51.5054L121.158 49.5249Z" fill="#505461"/>
<path d="M130.46 52.6226L130.593 52.9907C129.586 53.7821 128.735 54.1777 128.041 54.1777C127.673 54.1777 127.404 54.0466 127.235 53.7842C127.07 53.5218 126.988 53.1896 126.988 52.7876C126.988 52.119 127.165 51.4313 127.521 50.7246C127.876 50.0179 128.308 49.4762 128.816 49.0996C129.213 48.8076 129.662 48.6616 130.161 48.6616C130.474 48.6616 130.711 48.7209 130.872 48.8394C131.033 48.9578 131.113 49.1017 131.113 49.271C131.113 49.4022 131.071 49.5101 130.987 49.5947C130.902 49.6751 130.783 49.7153 130.631 49.7153C130.483 49.7153 130.293 49.6476 130.06 49.5122C129.819 49.3683 129.618 49.2964 129.457 49.2964C129.249 49.2964 129.042 49.3916 128.835 49.582C128.632 49.7682 128.437 50.1322 128.251 50.6738C128.064 51.2155 127.971 51.7593 127.971 52.3052C127.971 52.7072 128.05 53.0182 128.206 53.2383C128.321 53.4076 128.481 53.4922 128.689 53.4922C129.184 53.4922 129.774 53.2023 130.46 52.6226Z" fill="#505461"/>
<path d="M138.441 48.6616C138.856 48.6616 139.201 48.8267 139.476 49.1567C139.751 49.4868 139.888 49.946 139.888 50.5342C139.888 51.4736 139.558 52.3179 138.898 53.0669C138.238 53.8117 137.54 54.1841 136.804 54.1841C136.351 54.1841 135.985 54.036 135.705 53.7397C135.43 53.4435 135.293 53.0394 135.293 52.5273C135.293 51.6387 135.547 50.8177 136.054 50.0645C136.693 49.1292 137.489 48.6616 138.441 48.6616ZM137.902 49.1377C137.542 49.1377 137.193 49.3958 136.854 49.9121C136.52 50.4242 136.353 51.133 136.353 52.0386C136.353 52.5887 136.457 53.0225 136.664 53.3398C136.816 53.5726 137.019 53.689 137.273 53.689C137.629 53.689 137.952 53.4689 138.244 53.0288C138.617 52.4575 138.803 51.7487 138.803 50.9023C138.803 50.2676 138.716 49.8148 138.543 49.5439C138.374 49.2731 138.16 49.1377 137.902 49.1377Z" fill="#505461"/>
<path d="M147.273 50.9849L147.591 50.9785C148.158 50.9785 148.441 51.2578 148.441 51.8164C148.441 52.3877 148.111 52.9251 147.451 53.4287C146.791 53.9281 146.146 54.1777 145.515 54.1777C144.732 54.1777 144.341 53.7609 144.341 52.9272C144.341 51.937 144.643 50.9764 145.248 50.0454C145.858 49.1144 146.569 48.6489 147.381 48.6489C147.999 48.6489 148.308 48.9303 148.308 49.4932C148.308 50.0433 147.963 50.5405 147.273 50.9849ZM145.502 51.4863C146.763 50.9447 147.394 50.3543 147.394 49.7153C147.394 49.3133 147.227 49.1123 146.892 49.1123C146.237 49.1123 145.773 49.9036 145.502 51.4863ZM145.452 51.9434C145.413 52.1803 145.394 52.4131 145.394 52.6416C145.394 53.0225 145.437 53.2891 145.521 53.4414C145.61 53.5938 145.76 53.6699 145.972 53.6699C146.277 53.6699 146.59 53.507 146.912 53.1812C147.233 52.8511 147.394 52.4702 147.394 52.0386C147.394 51.5942 147.225 51.3721 146.886 51.3721C146.615 51.3721 146.137 51.5625 145.452 51.9434Z" fill="#505461"/>
<path d="M156.207 48.6616C156.622 48.6616 156.967 48.8267 157.242 49.1567C157.517 49.4868 157.654 49.946 157.654 50.5342C157.654 51.4736 157.324 52.3179 156.664 53.0669C156.004 53.8117 155.306 54.1841 154.569 54.1841C154.117 54.1841 153.75 54.036 153.471 53.7397C153.196 53.4435 153.059 53.0394 153.059 52.5273C153.059 51.6387 153.312 50.8177 153.82 50.0645C154.459 49.1292 155.255 48.6616 156.207 48.6616ZM155.667 49.1377C155.308 49.1377 154.959 49.3958 154.62 49.9121C154.286 50.4242 154.119 51.133 154.119 52.0386C154.119 52.5887 154.222 53.0225 154.43 53.3398C154.582 53.5726 154.785 53.689 155.039 53.689C155.395 53.689 155.718 53.4689 156.01 53.0288C156.383 52.4575 156.569 51.7487 156.569 50.9023C156.569 50.2676 156.482 49.8148 156.309 49.5439C156.139 49.2731 155.926 49.1377 155.667 49.1377Z" fill="#505461"/>
<path d="M166.455 48.833H167.356L166.759 51.0483C166.408 52.3348 166.233 53.0669 166.233 53.2446C166.233 53.325 166.252 53.3864 166.29 53.4287C166.328 53.471 166.37 53.4922 166.417 53.4922C166.489 53.4922 166.573 53.4604 166.671 53.397C166.81 53.2996 167.075 53.0542 167.464 52.6606L167.673 52.8955C166.823 53.7799 166.197 54.2222 165.795 54.2222C165.659 54.2222 165.543 54.1693 165.445 54.0635C165.352 53.9619 165.306 53.8159 165.306 53.6255C165.306 53.4054 165.352 53.1113 165.445 52.7432C165.069 53.1748 164.603 53.5535 164.049 53.8794C163.681 54.0952 163.361 54.2031 163.09 54.2031C162.942 54.2031 162.826 54.1545 162.741 54.0571C162.657 53.9598 162.614 53.8053 162.614 53.5938C162.614 53.4287 162.633 53.251 162.671 53.0605C162.726 52.7939 162.866 52.2586 163.09 51.4546C163.374 50.4347 163.516 49.8232 163.516 49.6201C163.516 49.5016 163.473 49.4424 163.389 49.4424C163.313 49.4424 163.209 49.4826 163.078 49.563C162.947 49.6392 162.722 49.8275 162.405 50.1279L162.126 49.9058C162.693 49.3979 163.124 49.0658 163.421 48.9092C163.721 48.7484 163.962 48.668 164.144 48.668C164.246 48.668 164.328 48.7061 164.392 48.7822C164.455 48.8542 164.487 48.9684 164.487 49.125C164.487 49.417 164.335 50.1343 164.03 51.2769C163.759 52.3052 163.624 52.8913 163.624 53.0352C163.624 53.124 163.651 53.2002 163.706 53.2637C163.765 53.3271 163.829 53.3589 163.897 53.3589C164.134 53.3589 164.47 53.1642 164.906 52.7749C165.342 52.3813 165.627 51.9349 165.763 51.4355L166.455 48.833ZM167.229 46.4653L167.42 46.7002C166.7 47.3773 165.941 47.7158 165.141 47.7158C164.84 47.7158 164.553 47.665 164.277 47.5635C164.002 47.4577 163.865 47.2905 163.865 47.062C163.865 46.8081 164 46.6812 164.271 46.6812C164.385 46.6812 164.601 46.7446 164.919 46.8716C165.38 47.0578 165.744 47.1509 166.01 47.1509C166.315 47.1509 166.721 46.9224 167.229 46.4653Z" fill="#505461"/>
<path d="M181.789 54.7935C182.263 54.8823 182.655 54.9268 182.964 54.9268C183.167 54.9268 183.33 54.8802 183.452 54.7871C183.575 54.6982 183.637 54.5819 183.637 54.438C183.637 54.383 183.63 54.3132 183.617 54.2285C183.596 54.1185 183.586 54.0296 183.586 53.9619C183.586 53.818 183.628 53.6466 183.713 53.4478V53.4287C183.209 53.9577 182.782 54.2222 182.43 54.2222C182.295 54.2222 182.179 54.1693 182.081 54.0635C181.988 53.9619 181.942 53.8159 181.942 53.6255C181.942 53.4054 181.988 53.1113 182.081 52.7432C181.705 53.1748 181.239 53.5535 180.685 53.8794C180.317 54.0952 179.997 54.2031 179.726 54.2031C179.578 54.2031 179.462 54.1545 179.377 54.0571C179.293 53.9598 179.25 53.8053 179.25 53.5938C179.25 53.4287 179.269 53.251 179.307 53.0605C179.362 52.7939 179.502 52.2586 179.726 51.4546C180.01 50.4347 180.152 49.8232 180.152 49.6201C180.152 49.5016 180.109 49.4424 180.025 49.4424C179.949 49.4424 179.845 49.4826 179.714 49.563C179.582 49.6392 179.358 49.8275 179.041 50.1279L178.762 49.9058C179.329 49.3979 179.76 49.0658 180.056 48.9092C180.357 48.7484 180.598 48.668 180.78 48.668C180.882 48.668 180.964 48.7061 181.028 48.7822C181.091 48.8542 181.123 48.9684 181.123 49.125C181.123 49.417 180.971 50.1343 180.666 51.2769C180.395 52.3052 180.26 52.8913 180.26 53.0352C180.26 53.124 180.287 53.2002 180.342 53.2637C180.401 53.3271 180.465 53.3589 180.533 53.3589C180.77 53.3589 181.106 53.1642 181.542 52.7749C181.978 52.3813 182.263 51.9349 182.399 51.4355L183.091 48.833H183.992L183.395 51.0483C183.044 52.3348 182.868 53.0669 182.868 53.2446C182.868 53.4097 182.93 53.4922 183.053 53.4922C183.205 53.4922 183.554 53.215 184.1 52.6606L184.309 52.8955C184.034 53.1536 183.897 53.4351 183.897 53.7397C183.897 53.8286 183.918 53.9534 183.96 54.1143C184.007 54.2878 184.03 54.4189 184.03 54.5078C184.03 54.7871 183.893 55.0304 183.617 55.2378C183.347 55.4451 182.959 55.5488 182.456 55.5488C181.986 55.5488 181.546 55.5298 181.136 55.4917C180.805 55.4578 180.604 55.4409 180.533 55.4409C180.274 55.4409 180.145 55.5467 180.145 55.7583C180.145 55.9022 180.219 55.9805 180.367 55.9932C180.562 56.0143 180.659 56.1011 180.659 56.2534C180.659 56.3254 180.63 56.3888 180.571 56.4438C180.511 56.5031 180.442 56.5327 180.361 56.5327C180.209 56.5327 180.069 56.4565 179.942 56.3042C179.815 56.1561 179.752 55.9699 179.752 55.7456C179.752 55.4325 179.881 55.1785 180.139 54.9839C180.401 54.7892 180.685 54.6919 180.99 54.6919C181.167 54.6919 181.434 54.7257 181.789 54.7935Z" fill="#505461"/>
<path d="M192.005 52.4067L192.215 52.686C191.178 53.672 190.289 54.165 189.549 54.165C189.248 54.165 189.018 54.0635 188.857 53.8604C188.7 53.6572 188.622 53.3314 188.622 52.8828C188.622 51.9772 188.897 51.0758 189.447 50.1787C190.065 49.1589 190.803 48.6489 191.663 48.6489C191.963 48.6489 192.191 48.7251 192.348 48.8774C192.509 49.0256 192.589 49.2308 192.589 49.4932C192.589 49.7682 192.494 50.0391 192.304 50.3057C192.113 50.5723 191.773 50.8494 191.282 51.1372C191.036 51.2769 190.511 51.5286 189.707 51.8926C189.669 52.1211 189.65 52.339 189.65 52.5464C189.65 52.8468 189.697 53.0563 189.79 53.1748C189.887 53.2933 190.027 53.3525 190.209 53.3525C190.382 53.3525 190.573 53.3039 190.78 53.2065C191.059 53.0754 191.468 52.8088 192.005 52.4067ZM189.784 51.4863C190.465 51.1816 190.977 50.8537 191.32 50.5024C191.552 50.257 191.669 50.0137 191.669 49.7725C191.669 49.5905 191.62 49.4466 191.523 49.3408C191.43 49.2308 191.307 49.1758 191.155 49.1758C190.998 49.1758 190.846 49.235 190.698 49.3535C190.499 49.5101 190.332 49.7471 190.196 50.0645C190.002 50.5299 189.864 51.0039 189.784 51.4863Z" fill="#505461"/>
<path d="M202.507 52.8955C201.66 53.7799 201.034 54.2222 200.628 54.2222C200.509 54.2222 200.397 54.1693 200.292 54.0635C200.19 53.9577 200.139 53.8117 200.139 53.6255C200.139 53.4097 200.181 53.1304 200.266 52.7876L200.564 51.5308H198.8L198.216 54H197.27C197.278 53.9492 197.323 53.7778 197.403 53.4858C197.463 53.2743 197.575 52.8384 197.74 52.1782L198.305 49.9121C198.334 49.7936 198.349 49.7005 198.349 49.6328C198.349 49.5059 198.305 49.4424 198.216 49.4424C198.03 49.4424 197.704 49.6709 197.238 50.1279L196.959 49.9121C197.848 49.0827 198.518 48.668 198.971 48.668C199.204 48.668 199.32 48.8224 199.32 49.1313C199.32 49.4276 199.181 50.0983 198.901 51.1436H200.672L201.288 48.833H202.189L201.593 51.0483C201.242 52.3348 201.066 53.0669 201.066 53.2446C201.066 53.4097 201.127 53.4922 201.25 53.4922C201.402 53.4922 201.751 53.215 202.297 52.6606L202.507 52.8955Z" fill="#505461"/>
<path d="M207.048 50.1216L206.858 49.8677C207.276 49.4487 207.674 49.1398 208.051 48.9409C208.428 48.742 208.724 48.6426 208.94 48.6426C209.028 48.6426 209.094 48.6616 209.136 48.6997C209.183 48.7378 209.206 48.7907 209.206 48.8584C209.206 48.943 209.172 49.106 209.105 49.3472C209.007 49.7026 208.94 49.9841 208.901 50.1914C209.917 49.1589 210.694 48.6426 211.231 48.6426C211.371 48.6426 211.476 48.6807 211.548 48.7568C211.62 48.833 211.656 48.9536 211.656 49.1187C211.656 49.2964 211.593 49.599 211.466 50.0264C211.948 49.5228 212.367 49.1673 212.723 48.96C213.078 48.7484 213.355 48.6426 213.554 48.6426C213.732 48.6426 213.87 48.6934 213.967 48.7949C214.064 48.8965 214.113 49.0531 214.113 49.2646C214.113 49.3916 214.092 49.5418 214.049 49.7153C214.007 49.8888 213.853 50.4178 213.586 51.3022C213.252 52.3983 213.085 53.0521 213.085 53.2637C213.085 53.4076 213.144 53.4795 213.262 53.4795C213.343 53.4795 213.421 53.4541 213.497 53.4033C213.747 53.2256 214.003 53.0055 214.265 52.7432L214.475 52.9717C214.386 53.0436 214.219 53.1917 213.973 53.416C213.635 53.7207 213.402 53.9111 213.275 53.9873C213.03 54.1312 212.822 54.2031 212.653 54.2031C212.526 54.2031 212.414 54.1396 212.316 54.0127C212.219 53.89 212.171 53.7186 212.171 53.4985C212.171 53.2954 212.2 53.0584 212.259 52.7876C212.319 52.5125 212.492 51.8989 212.78 50.9468C212.996 50.2316 213.104 49.7979 213.104 49.6455C213.104 49.5016 213.04 49.4297 212.913 49.4297C212.807 49.4297 212.666 49.4826 212.488 49.5884C212.124 49.8084 211.819 50.0771 211.574 50.3945C211.405 50.6146 211.256 50.9637 211.129 51.4419C210.846 52.4871 210.634 53.3398 210.495 54H209.593L210.539 50.1216C210.607 49.8423 210.641 49.6815 210.641 49.6392C210.641 49.5715 210.624 49.5207 210.59 49.4868C210.556 49.4487 210.507 49.4297 210.444 49.4297C210.33 49.4297 210.152 49.5186 209.911 49.6963C209.492 49.9967 209.189 50.2887 209.003 50.5723C208.821 50.8516 208.664 51.279 208.533 51.8545L208.045 54H207.137L207.854 50.9722C208.066 50.0962 208.171 49.6201 208.171 49.5439C208.171 49.4466 208.133 49.3979 208.057 49.3979C207.892 49.3979 207.556 49.6392 207.048 50.1216Z" fill="#505461"/>
<path d="M218.933 50.2358L218.686 49.9819C219.071 49.5207 219.454 49.18 219.835 48.96C220.216 48.7399 220.546 48.6299 220.825 48.6299C220.931 48.6299 221.013 48.6574 221.072 48.7124C221.136 48.7632 221.168 48.8394 221.168 48.9409C221.168 49.0636 221.153 49.1906 221.123 49.3218C221.098 49.4487 221.013 49.7534 220.869 50.2358C221.517 49.5884 221.959 49.1885 222.196 49.0361C222.594 48.778 222.958 48.6489 223.288 48.6489C223.504 48.6489 223.686 48.7505 223.834 48.9536C223.982 49.1567 224.056 49.4635 224.056 49.874C224.056 50.8981 223.736 51.8714 223.097 52.7939C222.458 53.7165 221.752 54.1777 220.977 54.1777C220.673 54.1777 220.368 54.0952 220.063 53.9302L219.524 56.0249C219.49 56.1519 219.473 56.2555 219.473 56.3359C219.473 56.4925 219.532 56.6047 219.651 56.6724C219.833 56.7782 220.216 56.8649 220.8 56.9326L220.717 57.25C220.036 57.195 219.5 57.1675 219.111 57.1675C218.709 57.1675 218.189 57.195 217.55 57.25L217.632 56.9326C217.954 56.8988 218.186 56.8099 218.33 56.666C218.478 56.5221 218.597 56.2661 218.686 55.8979L219.835 51.0801C220.05 50.1829 220.158 49.6836 220.158 49.582C220.158 49.472 220.105 49.417 220 49.417C219.814 49.417 219.458 49.6899 218.933 50.2358ZM220.216 53.2319C220.55 53.5662 220.893 53.7334 221.244 53.7334C221.752 53.7334 222.196 53.3377 222.577 52.5464C222.962 51.755 223.154 50.9827 223.154 50.2295C223.154 49.9883 223.099 49.8063 222.989 49.6836C222.884 49.5566 222.74 49.4932 222.558 49.4932C222.355 49.4932 222.126 49.5926 221.872 49.7915C221.479 50.1004 221.178 50.4072 220.971 50.7119C220.823 50.932 220.683 51.3128 220.552 51.8545L220.216 53.2319Z" fill="#505461"/>
</svg>
